# xmcd
#
# Track frame offsets: 
#        150
#        63555
#        76204
#        84981
#        135217
#        156982
#        196010
#        209756
#        236838
#        294120
#        297418
#        313297
#
# Disc length: 4638 seconds
#
# Revision: 0
# Processed by: cddbd v1.5.2PL0 Copyright (c) Steve Scherf et al.
# Submitted via: ExactAudioCopy v0.95b3
#
DISCID=ab121c0c
DTITLE=Jimi Hendrix  - Mixdown Master Tapes - Disc 2  FLAC
DYEAR=1900
DGENRE=
TTITLE0=Untitled Instrumental Jam
TTITLE1=Cat Talking To Me
TTITLE2=Rainey Day
TTITLE3=Rainey Day, Dream Away
TTITLE4=Moon Turns The Tide
TTITLE5=Heaven Has No Tomorrow
TTITLE6=Valley Of Neptune Arising
TTITLE7=Valley Of Neptune Arising
TTITLE8=Three Little Bears and Villanova Junction
TTITLE9=Bleeding Heart
TTITLE10=Bleeding Heart
TTITLE11=Cherokee Mist
EXTD=
EXTT0=
EXTT1=
EXTT2=
EXTT3=
EXTT4=
EXTT5=
EXTT6=
EXTT7=
EXTT8=
EXTT9=
EXTT10=
EXTT11=
PLAYORDER=
